# xmcd CD database file
#
# Track frame offsets:
#	150
#	23371
#	41219
#	61430
#	91634
#	112932
#	143256
#	163385
#	177313
#
# Disc length: 2698 seconds
#
# Revision: 0
# Processed by: cddbd v1.5.2PL0 Copyright (c) Steve Scherf et al.
# Submitted via: CDex 1.51
#
DISCID=680a8809
DTITLE=Albert King - Redhouse 
DYEAR=1991
DGENRE=Blues
TTITLE0=Stop
TTITLE1=Blues Man
TTITLE2=Don't Let me Be Lonely
TTITLE3=When You Talk Out The Door
TTITLE4=Problems
TTITLE5=Our Love Is Going To Win
TTITLE6=Trouble
TTITLE7=If You Got It
TTITLE8=Red House
EXTD=YEAR: 1991
EXTT0=
EXTT1=
EXTT2=
EXTT3=
EXTT4=
EXTT5=
EXTT6=
EXTT7=
EXTT8=
PLAYORDER=
